<svg width="24" height="24" viewBox="0 0 24 24" fill="none"
    xmlns="http://www.w3.org/2000/svg">
    <path fill-rule="evenodd" clip-rule="evenodd" d="M3.25 3.5C3.25 3.08579 3.58579 2.75 4 2.75H16C16.4142 2.75 16.75 3.08579 16.75 3.5V6.5C16.75 6.91421 16.4142 7.25 16 7.25H4C3.58579 7.25 3.25 6.91421 3.25 6.5V3.5ZM4.75 4.25V5.75H15.25V4.25H4.75Z" fill="white"/>
    <path fill-rule="evenodd" clip-rule="evenodd" d="M3.25 10.5C3.25 10.0858 3.58579 9.75 4 9.75H20C20.4142 9.75 20.75 10.0858 20.75 10.5V13.5C20.75 13.9142 20.4142 14.25 20 14.25H4C3.58579 14.25 3.25 13.9142 3.25 13.5V10.5ZM4.75 11.25V12.75H19.25V11.25H4.75Z" fill="white"/>
    <path fill-rule="evenodd" clip-rule="evenodd" d="M3.25 17.5C3.25 17.0858 3.58579 16.75 4 16.75H13C13.4142 16.75 13.75 17.0858 13.75 17.5V20.5C13.75 20.9142 13.4142 21.25 13 21.25H4C3.58579 21.25 3.25 20.9142 3.25 20.5V17.5ZM4.75 18.25V19.75H12.25V18.25H4.75Z" fill="white"/>
</svg>
