<svg width="48" height="48" viewBox="0 0 48 48" fill="none" xmlns="http://www.w3.org/2000/svg">
<path fill-rule="evenodd" clip-rule="evenodd" d="M6 9.5C5.72386 9.5 5.5 9.72386 5.5 10V38C5.5 38.2762 5.72384 38.5 6 38.5H42C42.2762 38.5 42.5 38.2762 42.5 38V10C42.5 9.72384 42.2762 9.5 42 9.5H6ZM2.5 10C2.5 8.067 4.067 6.5 6 6.5H42C43.933 6.5 45.5 8.06702 45.5 10V38C45.5 39.933 43.933 41.5 42 41.5H6C4.06702 41.5 2.5 39.933 2.5 38V10Z" fill="#2B3E5E"/>
<path fill-rule="evenodd" clip-rule="evenodd" d="M2.5 16C2.5 15.1716 3.17157 14.5 4 14.5H44C44.8284 14.5 45.5 15.1716 45.5 16C45.5 16.8284 44.8284 17.5 44 17.5H4C3.17157 17.5 2.5 16.8284 2.5 16Z" fill="#2B3E5E"/>
<path fill-rule="evenodd" clip-rule="evenodd" d="M25.5 32C25.5 31.1716 26.1716 30.5 27 30.5H36C36.8284 30.5 37.5 31.1716 37.5 32C37.5 32.8284 36.8284 33.5 36 33.5H27C26.1716 33.5 25.5 32.8284 25.5 32Z" fill="#2B3E5E"/>
<path fill-rule="evenodd" clip-rule="evenodd" d="M44 8.5C44.8284 8.5 45.5 9.17157 45.5 10V26C45.5 26.8284 44.8284 27.5 44 27.5C43.1716 27.5 42.5 26.8284 42.5 26V10C42.5 9.17157 43.1716 8.5 44 8.5Z" fill="#2B3E5E"/>
<path fill-rule="evenodd" clip-rule="evenodd" d="M4 8.5C4.82843 8.5 5.5 9.17157 5.5 10V26C5.5 26.8284 4.82843 27.5 4 27.5C3.17157 27.5 2.5 26.8284 2.5 26V10C2.5 9.17157 3.17157 8.5 4 8.5Z" fill="#2B3E5E"/>
</svg>
