<svg width="48" height="48" viewBox="0 0 48 48" fill="none" xmlns="http://www.w3.org/2000/svg">
<path fill-rule="evenodd" clip-rule="evenodd" d="M3.54027 5.65537C3.7001 4.97831 4.30448 4.5 5.00015 4.5H39.0001C39.233 4.5 39.4627 4.55422 39.671 4.65836L39.0001 6C39.671 4.65836 39.6716 4.65869 39.6723 4.65904L39.6738 4.65977L39.677 4.66137L39.6844 4.66517L39.7038 4.67515L39.7595 4.70474C39.8039 4.72878 39.8626 4.76157 39.9336 4.8034C40.0753 4.88694 40.2671 5.0072 40.4922 5.16659C40.9406 5.48422 41.531 5.96442 42.1213 6.62845C43.313 7.96914 44.5001 10.0608 44.5001 13C44.5001 15.9392 43.313 18.0309 42.1213 19.3715C41.531 20.0356 40.9406 20.5158 40.4922 20.8334C40.2671 20.9928 40.0753 21.1131 39.9336 21.1966C39.8626 21.2384 39.8039 21.2712 39.7595 21.2953L39.7038 21.3248L39.6844 21.3348L39.677 21.3386L39.6738 21.3402L39.6723 21.341C39.6716 21.3413 39.671 21.3416 39.0001 20L39.671 21.3416C39.4627 21.4458 39.233 21.5 39.0001 21.5H5.00015C4.30448 21.5 3.7001 21.0217 3.54027 20.3446C3.38124 19.6709 3.70387 18.9764 4.32008 18.663L4.33064 18.6574C4.34486 18.6497 4.37208 18.6346 4.41048 18.612C4.48745 18.5666 4.60815 18.4916 4.75812 18.3853C5.0597 18.1717 5.46929 17.8394 5.87903 17.3785C6.68731 16.4691 7.50015 15.0608 7.50015 13C7.50015 10.9392 6.68731 9.53086 5.87903 8.62155C5.46929 8.16058 5.0597 7.82828 4.75812 7.61466C4.60815 7.50843 4.48745 7.43337 4.41048 7.38801C4.37208 7.36538 4.34486 7.35032 4.33064 7.34262L4.32009 7.33698C3.70387 7.0236 3.38123 6.32907 3.54027 5.65537ZM8.80973 7.5C9.73117 8.81791 10.5001 10.6345 10.5001 13C10.5001 15.3655 9.73117 17.1821 8.80973 18.5H38.59C38.6405 18.4669 38.6969 18.4287 38.7581 18.3853C39.0597 18.1717 39.4693 17.8394 39.879 17.3785C40.6873 16.4691 41.5001 15.0608 41.5001 13C41.5001 10.9392 40.6873 9.53086 39.879 8.62155C39.4693 8.16058 39.0597 7.82828 38.7581 7.61466C38.6969 7.57127 38.6405 7.53309 38.59 7.5H8.80973ZM4.32807 18.659C4.32807 18.659 4.32806 18.659 4.32806 18.659L4.32727 18.6594L4.32688 18.6596L4.32667 18.6597C4.32687 18.6596 4.32707 18.6595 4.32727 18.6594C4.32754 18.6593 4.3278 18.6591 4.32807 18.659Z" fill="#2B3E5E"/>
<path fill-rule="evenodd" clip-rule="evenodd" d="M8.32918 26.6584C8.53746 26.5542 8.76713 26.5 9 26.5H43C43.6957 26.5 44.3 26.9783 44.4599 27.6554C44.6189 28.3291 44.2963 29.0236 43.6801 29.337C43.677 29.3385 43.6739 29.3401 43.6708 29.3416L43 28C43.6708 29.3416 43.6715 29.3413 43.6721 29.341L43.6733 29.3404L43.6754 29.3394L43.6785 29.3378L43.6695 29.3426C43.6553 29.3503 43.6281 29.3654 43.5897 29.388C43.5127 29.4334 43.392 29.5084 43.242 29.6147C42.9404 29.8283 42.5309 30.1606 42.1211 30.6215C41.3128 31.5309 40.5 32.9392 40.5 35C40.5 37.0608 41.3128 38.4691 42.1211 39.3785C42.5309 39.8394 42.9404 40.1717 43.242 40.3853C43.392 40.4916 43.5127 40.5666 43.5897 40.612C43.6281 40.6346 43.6553 40.6497 43.6695 40.6574L43.6785 40.6622L43.6754 40.6606L43.6733 40.6596L43.6721 40.659C43.6747 40.6603 43.6774 40.6617 43.6801 40.663C44.2963 40.9764 44.6189 41.6709 44.4599 42.3446C44.3 43.0217 43.6957 43.5 43 43.5H9C8.76713 43.5 8.53746 43.4458 8.32918 43.3416L9 42C8.32918 43.3416 8.32851 43.3413 8.32782 43.341L8.32637 43.3402L8.32318 43.3386L8.3157 43.3348L8.29633 43.3248L8.24065 43.2953C8.19627 43.2712 8.13756 43.2384 8.06659 43.1966C7.92481 43.1131 7.733 42.9928 7.50797 42.8334C7.05956 42.5158 6.46914 42.0356 5.87889 41.3715C4.68716 40.0309 3.5 37.9392 3.5 35C3.5 32.0608 4.68716 29.9691 5.87889 28.6285C6.46914 27.9644 7.05956 27.4842 7.50797 27.1666C7.733 27.0072 7.92481 26.8869 8.06659 26.8034C8.13756 26.7616 8.19627 26.7288 8.24065 26.7047L8.29633 26.6752L8.3157 26.6652L8.32318 26.6614L8.32637 26.6598L8.32782 26.659C8.32851 26.6587 8.32918 26.6584 9 28L8.32918 26.6584ZM9.41014 29.5C9.35964 29.5331 9.30328 29.5713 9.24203 29.6147C8.94044 29.8283 8.53086 30.1606 8.12111 30.6215C7.31284 31.5309 6.5 32.9392 6.5 35C6.5 37.0608 7.31284 38.4691 8.12111 39.3785C8.53086 39.8394 8.94044 40.1717 9.24203 40.3853C9.30328 40.4287 9.35964 40.4669 9.41014 40.5H39.1904C38.269 39.1821 37.5 37.3655 37.5 35C37.5 32.6345 38.269 30.8179 39.1904 29.5H9.41014ZM9.68072 40.6634L9.68071 40.6634Z" fill="#2B3E5E"/>
</svg>
