<svg width="48" height="48" viewBox="0 0 48 48" fill="none" xmlns="http://www.w3.org/2000/svg">
<path fill-rule="evenodd" clip-rule="evenodd" d="M6 9.5C5.72386 9.5 5.5 9.72386 5.5 10V38C5.5 38.2761 5.72386 38.5 6 38.5H42C42.2761 38.5 42.5 38.2761 42.5 38V10C42.5 9.72386 42.2761 9.5 42 9.5H6ZM2.5 10C2.5 8.067 4.067 6.5 6 6.5H42C43.933 6.5 45.5 8.067 45.5 10V38C45.5 39.933 43.933 41.5 42 41.5H6C4.067 41.5 2.5 39.933 2.5 38V10Z" fill="#2B3E5E"/>
<path fill-rule="evenodd" clip-rule="evenodd" d="M11.5 21C11.5 17.9625 13.9625 15.5 17 15.5C20.0375 15.5 22.5 17.9625 22.5 21C22.5 24.0375 20.0375 26.5 17 26.5C13.9625 26.5 11.5 24.0375 11.5 21ZM17 18.5C15.6193 18.5 14.5 19.6193 14.5 21C14.5 22.3807 15.6193 23.5 17 23.5C18.3807 23.5 19.5 22.3807 19.5 21C19.5 19.6193 18.3807 18.5 17 18.5Z" fill="#2B3E5E"/>
<path fill-rule="evenodd" clip-rule="evenodd" d="M9.5 31C9.5 26.8579 12.8579 23.5 17 23.5C21.1421 23.5 24.5 26.8579 24.5 31C24.5 31.8284 23.8284 32.5 23 32.5C22.1716 32.5 21.5 31.8284 21.5 31C21.5 28.5147 19.4853 26.5 17 26.5C14.5147 26.5 12.5 28.5147 12.5 31C12.5 31.8284 11.8284 32.5 11 32.5C10.1716 32.5 9.5 31.8284 9.5 31Z" fill="#2B3E5E"/>
<path fill-rule="evenodd" clip-rule="evenodd" d="M26.5 20C26.5 19.1716 27.1716 18.5 28 18.5H36C36.8284 18.5 37.5 19.1716 37.5 20C37.5 20.8284 36.8284 21.5 36 21.5H28C27.1716 21.5 26.5 20.8284 26.5 20Z" fill="#2B3E5E"/>
<path fill-rule="evenodd" clip-rule="evenodd" d="M28.5 28C28.5 27.1716 29.1716 26.5 30 26.5H36C36.8284 26.5 37.5 27.1716 37.5 28C37.5 28.8284 36.8284 29.5 36 29.5H30C29.1716 29.5 28.5 28.8284 28.5 28Z" fill="#2B3E5E"/>
</svg>
