<svg width="48" height="48" viewBox="0 0 48 48" fill="none" xmlns="http://www.w3.org/2000/svg">
<path fill-rule="evenodd" clip-rule="evenodd" d="M24 5.5C20.9624 5.5 18.5 7.96243 18.5 11C18.5 14.0376 20.9624 16.5 24 16.5C27.0376 16.5 29.5 14.0376 29.5 11C29.5 7.96243 27.0376 5.5 24 5.5ZM15.5 11C15.5 6.30558 19.3056 2.5 24 2.5C28.6944 2.5 32.5 6.30558 32.5 11C32.5 15.6944 28.6944 19.5 24 19.5C19.3056 19.5 15.5 15.6944 15.5 11Z" fill="#F1906F"/>
<path fill-rule="evenodd" clip-rule="evenodd" d="M22 26.5C12.7164 26.5 5.5 33.153 5.5 41C5.5 41.8284 4.82843 42.5 4 42.5C3.17157 42.5 2.5 41.8284 2.5 41C2.5 31.1738 11.4014 23.5 22 23.5C22.8284 23.5 23.5 24.1716 23.5 25C23.5 25.8284 22.8284 26.5 22 26.5Z" fill="#F1906F"/>
<path fill-rule="evenodd" clip-rule="evenodd" d="M25.5 31C25.5 30.1716 26.1716 29.5 27 29.5H41C41.8284 29.5 42.5 30.1716 42.5 31V41C42.5 41.8284 41.8284 42.5 41 42.5H27C26.1716 42.5 25.5 41.8284 25.5 41V31ZM28.5 32.5V39.5H39.5V32.5H28.5Z" fill="#F1906F"/>
<path fill-rule="evenodd" clip-rule="evenodd" d="M29.5 28C29.5 25.5147 31.5147 23.5 34 23.5C36.4853 23.5 38.5 25.5147 38.5 28V31C38.5 31.8284 37.8284 32.5 37 32.5C36.1716 32.5 35.5 31.8284 35.5 31V28C35.5 27.1715 34.8285 26.5 34 26.5C33.1715 26.5 32.5 27.1715 32.5 28V31C32.5 31.8284 31.8284 32.5 31 32.5C30.1716 32.5 29.5 31.8284 29.5 31V28Z" fill="#F1906F"/>
</svg>
