<svg width="24" height="24" viewBox="0 0 24 24" fill="none" xmlns="http://www.w3.org/2000/svg">
<path fill-rule="evenodd" clip-rule="evenodd" d="M21.3465 7.33465C21.7139 7.5259 21.8567 7.97879 21.6654 8.34621C21.2929 9.06193 20.7404 9.7035 20.0642 10.2577C18.1798 11.8021 15.2389 12.7499 12.0002 12.7499C8.76141 12.7499 5.82048 11.8021 3.93613 10.2577C3.25991 9.7035 2.70746 9.06192 2.33489 8.34622C2.14363 7.97881 2.28643 7.52591 2.65385 7.33465C3.02126 7.14339 3.47415 7.28619 3.66541 7.6536C3.92757 8.1572 4.33686 8.64672 4.88693 9.09753L4.88695 9.09754C6.44083 10.3711 9.0179 11.2499 12.0002 11.2499C14.9824 11.2499 17.5595 10.3711 19.1133 9.09754L19.1134 9.09753C19.6634 8.64671 20.0728 8.15719 20.3349 7.65361C20.5261 7.2862 20.979 7.14339 21.3465 7.33465Z" fill="#1C1B1E"/>
<path fill-rule="evenodd" clip-rule="evenodd" d="M14.2944 11.2755C14.6945 11.1683 15.1057 11.4057 15.2129 11.8058L16.2482 15.6695C16.3554 16.0696 16.1179 16.4809 15.7178 16.5881C15.3177 16.6953 14.9065 16.4579 14.7993 16.0578L13.764 12.1941C13.6568 11.794 13.8943 11.3827 14.2944 11.2755Z" fill="#1C1B1E"/>
<path fill-rule="evenodd" clip-rule="evenodd" d="M18.1464 10.1464C18.4393 9.85354 18.9142 9.85353 19.2071 10.1464L22.0355 12.9748C22.3284 13.2677 22.3284 13.7426 22.0355 14.0355C21.7427 14.3284 21.2678 14.3284 20.9749 14.0355L18.1464 11.2071C17.8535 10.9142 17.8535 10.4393 18.1464 10.1464Z" fill="#1C1B1E"/>
<path fill-rule="evenodd" clip-rule="evenodd" d="M5.85874 10.1464C6.15163 10.4393 6.15163 10.9142 5.85874 11.2071L3.03033 14.0355C2.73744 14.3284 2.26256 14.3284 1.96967 14.0355C1.67678 13.7426 1.67678 13.2677 1.96967 12.9748L4.79808 10.1464C5.09097 9.85353 5.56585 9.85353 5.85874 10.1464Z" fill="#1C1B1E"/>
<path fill-rule="evenodd" clip-rule="evenodd" d="M9.69347 11.2755C10.0936 11.3827 10.331 11.794 10.2238 12.1941L9.1885 16.0578C9.08129 16.4579 8.67003 16.6953 8.26993 16.5881C7.86984 16.4809 7.6324 16.0696 7.73961 15.6695L8.77491 11.8058C8.88212 11.4057 9.29337 11.1683 9.69347 11.2755Z" fill="#1C1B1E"/>
</svg>
