<svg width="24" height="24" viewBox="0 0 24 24" fill="none" xmlns="http://www.w3.org/2000/svg">
<path fill-rule="evenodd" clip-rule="evenodd" d="M4.45015 8.42257C6.30809 6.88254 8.97732 5.25 11.9998 5.25C15.0224 5.25 17.6916 6.88254 19.5495 8.42257C20.4891 9.20141 21.2477 9.97852 21.7716 10.5609C22.034 10.8526 22.2386 11.0967 22.3789 11.2694C22.4491 11.3559 22.5032 11.4245 22.5405 11.4725C22.5591 11.4965 22.5735 11.5153 22.5837 11.5286L22.5956 11.5443L22.5991 11.549L22.6002 11.5505C22.6004 11.5507 22.6009 11.5515 21.9998 12C22.6009 12.4485 22.6008 12.4487 22.6006 12.4489L22.5991 12.451L22.5956 12.4557L22.5837 12.4714C22.5735 12.4847 22.5591 12.5035 22.5405 12.5275C22.5032 12.5755 22.4491 12.6441 22.3789 12.7306C22.2386 12.9033 22.034 13.1474 21.7716 13.4391C21.2477 14.0215 20.4891 14.7986 19.5495 15.5774C17.6916 17.1175 15.0224 18.75 11.9998 18.75C8.97732 18.75 6.30809 17.1175 4.45015 15.5774C3.51055 14.7986 2.75202 14.0215 2.22811 13.4391C1.96572 13.1474 1.76104 12.9033 1.62076 12.7306C1.5506 12.6441 1.49646 12.5755 1.4592 12.5275C1.44057 12.5035 1.42614 12.4847 1.41603 12.4714L1.40412 12.4557L1.40061 12.451L1.39947 12.4495C1.39931 12.4493 1.39875 12.4485 1.99984 12C1.39875 11.5515 1.39889 11.5513 1.39906 11.5511L1.40061 11.549L1.40412 11.5443L1.41603 11.5286C1.42614 11.5153 1.44057 11.4965 1.4592 11.4725C1.49646 11.4245 1.5506 11.3559 1.62076 11.2694C1.76104 11.0967 1.96572 10.8526 2.22811 10.5609C2.75202 9.97852 3.51055 9.20141 4.45015 8.42257ZM1.99984 12L1.39906 11.5511C1.20052 11.8171 1.20021 12.1825 1.39875 12.4485L1.99984 12ZM2.96324 12C3.06863 12.125 3.19581 12.272 3.34327 12.4359C3.83142 12.9785 4.53736 13.7014 5.4074 14.4226C7.16875 15.8825 9.49952 17.25 11.9998 17.25C14.5002 17.25 16.8309 15.8825 18.5923 14.4226C19.4623 13.7014 20.1683 12.9785 20.6564 12.4359C20.8039 12.272 20.9311 12.125 21.0364 12C20.9311 11.875 20.8039 11.728 20.6564 11.5641C20.1683 11.0215 19.4623 10.2986 18.5923 9.57743C16.8309 8.11746 14.5002 6.75 11.9998 6.75C9.49952 6.75 7.16875 8.11746 5.4074 9.57743C4.53736 10.2986 3.83142 11.0215 3.34327 11.5641C3.19581 11.728 3.06863 11.875 2.96324 12ZM21.9998 12L22.6006 12.4489C22.7992 12.1829 22.7995 11.8175 22.6009 11.5515L21.9998 12Z" fill="#1C1B1E"/>
<path fill-rule="evenodd" clip-rule="evenodd" d="M8.75 12C8.75 10.2051 10.2051 8.75 12 8.75C13.7949 8.75 15.25 10.2051 15.25 12C15.25 13.7949 13.7949 15.25 12 15.25C10.2051 15.25 8.75 13.7949 8.75 12ZM12 10.25C11.0335 10.25 10.25 11.0335 10.25 12C10.25 12.9665 11.0335 13.75 12 13.75C12.9665 13.75 13.75 12.9665 13.75 12C13.75 11.0335 12.9665 10.25 12 10.25Z" fill="#1C1B1E"/>
</svg>
