<svg width="20" height="20" viewBox="0 0 20 20" fill="none" xmlns="http://www.w3.org/2000/svg">
<path fill-rule="evenodd" clip-rule="evenodd" d="M1.04175 8.75001C1.04175 4.49283 4.4929 1.04167 8.75008 1.04167C13.0073 1.04167 16.4584 4.49283 16.4584 8.75001C16.4584 13.0072 13.0073 16.4583 8.75008 16.4583C4.4929 16.4583 1.04175 13.0072 1.04175 8.75001ZM8.75008 2.29167C5.18326 2.29167 2.29175 5.18318 2.29175 8.75001C2.29175 12.3168 5.18326 15.2083 8.75008 15.2083C12.3169 15.2083 15.2084 12.3168 15.2084 8.75001C15.2084 5.18318 12.3169 2.29167 8.75008 2.29167Z" fill="white"/>
<path fill-rule="evenodd" clip-rule="evenodd" d="M5.95114 5.53433C6.6668 4.81872 7.65724 4.375 8.75011 4.375C9.84298 4.375 10.8334 4.81872 11.549 5.53435C11.7931 5.77843 11.7931 6.17416 11.549 6.41823C11.305 6.66231 10.9092 6.66231 10.6652 6.41823C10.1744 5.92745 9.49816 5.625 8.75011 5.625C8.00206 5.625 7.32583 5.92745 6.83499 6.41825C6.59091 6.66232 6.19518 6.6623 5.95111 6.41822C5.70704 6.17413 5.70705 5.7784 5.95114 5.53433Z" fill="white"/>
<path fill-rule="evenodd" clip-rule="evenodd" d="M13.4006 13.4005C13.6447 13.1564 14.0404 13.1564 14.2845 13.4005L17.82 16.936C18.0641 17.1801 18.0641 17.5758 17.82 17.8199C17.5759 18.064 17.1802 18.064 16.9361 17.8199L13.4006 14.2844C13.1565 14.0403 13.1565 13.6446 13.4006 13.4005Z" fill="white"/>
</svg>
