<svg width="24" height="24" viewBox="0 0 24 24" fill="none" xmlns="http://www.w3.org/2000/svg">
<path fill-rule="evenodd" clip-rule="evenodd" d="M12 2.75C10.2051 2.75 8.75 4.20507 8.75 6C8.75 7.79493 10.2051 9.25 12 9.25C13.7949 9.25 15.25 7.79493 15.25 6C15.25 4.20507 13.7949 2.75 12 2.75ZM7.25 6C7.25 3.37665 9.37665 1.25 12 1.25C14.6234 1.25 16.75 3.37665 16.75 6C16.75 8.62335 14.6234 10.75 12 10.75C9.37665 10.75 7.25 8.62335 7.25 6Z" fill="white"/>
<path fill-rule="evenodd" clip-rule="evenodd" d="M2.25 22C2.25 16.6152 6.61524 12.25 12 12.25C17.3848 12.25 21.75 16.6152 21.75 22C21.75 22.4142 21.4142 22.75 21 22.75C20.5858 22.75 20.25 22.4142 20.25 22C20.25 17.4437 16.5563 13.75 12 13.75C7.44366 13.75 3.75 17.4437 3.75 22C3.75 22.4142 3.41421 22.75 3 22.75C2.58579 22.75 2.25 22.4142 2.25 22Z" fill="white"/>
</svg>
